<mxfile host="app.diagrams.net" modified="2023-09-16T19:26:37.739Z" agent="Mozilla/5.0 (X11; Ubuntu; Linux x86_64; rv:109.0) Gecko/20100101 Firefox/117.0" version="21.7.5" etag="1D7XFij_8Jh7jK7vYa78" type="github">
  <diagram name="Page-1" id="JV67yXA10vP0cb2lhyV5">
    <mxGraphModel>
      <root>
        <mxCell id="0" />
        <mxCell id="1" parent="0" />
      </root>
    </mxGraphModel>
  </diagram>
</mxfile>
